# xmcd
#
# Track frame offsets: 
#        150
#        13118
#        31126
#        50765
#        66606
#        79131
#        91423
#        113706
#        149877
#        164658
#        181217
#
# Disc length: 2689 seconds
#
# Revision: 0
# Processed by: cddbd v1.5.2PL0 Copyright (c) Steve Scherf et al.
# Submitted via: ExactAudioCopyFreeDBPlugin 1.0
#
DISCID=a00a7f0b
DTITLE=The Blues Masters - The Blues Masters Featuring Mickey Thomas 
DYEAR=2011
DGENRE=Blues
TTITLE0=Cherry Red
TTITLE1=Rock Me Baby
TTITLE2=Fooled Around And Fell In Love
TTITLE3=Sick And Tired
TTITLE4=I'd Rather Go Blind
TTITLE5=Can't Get No Grindin'
TTITLE6=Walkin' Blues
TTITLE7=Third Degree
TTITLE8=Get Your Business Straight
TTITLE9=Over Yonder Wall
TTITLE10=Long Time
EXTD=
EXTT0=
EXTT1=
EXTT2=
EXTT3=
EXTT4=
EXTT5=
EXTT6=
EXTT7=
EXTT8=
EXTT9=
EXTT10=
PLAYORDER=
